<?xml version="1.0" standalone="no"?>
<!DOCTYPE svg PUBLIC "-//W3C//DTD SVG 20010904//EN"
 "http://www.w3.org/TR/2001/REC-SVG-20010904/DTD/svg10.dtd">
<svg version="1.0" xmlns="http://www.w3.org/2000/svg"
 width="260.000000pt" height="260.000000pt" viewBox="0 0 260.000000 260.000000"
 preserveAspectRatio="xMidYMid meet">
<metadata>
Created by potrace 1.11, written by Peter Selinger 2001-2013
</metadata>
<g transform="translate(0.000000,260.000000) scale(0.100000,-0.100000)"
fill="#000000" stroke="none">
<path d="M0 1300 l0 -1300 1300 0 1300 0 0 1300 0 1300 -1300 0 -1300 0 0
-1300z m1026 521 c90 -11 183 -47 228 -89 92 -86 72 -245 -46 -362 l-61 -61
18 -39 c37 -82 -18 -232 -110 -302 -73 -55 -117 -67 -355 -93 -118 -14 -228
-27 -244 -30 -27 -5 -28 -4 -22 28 24 126 133 439 211 605 52 108 53 112 31
112 -22 0 -25 9 -46 106 -12 58 -20 107 -18 109 6 7 174 22 253 24 44 0 116
-3 161 -8z m734 0 c0 -5 -11 -28 -24 -52 -31 -55 -166 -346 -166 -357 0 -5 48
-2 107 6 97 13 108 13 118 -2 7 -9 14 -16 17 -16 3 0 20 33 38 73 18 39 65
132 104 204 78 148 62 136 198 148 l67 7 -89 -184 c-106 -218 -122 -261 -201
-522 -33 -110 -62 -202 -64 -204 -2 -3 -48 -15 -102 -28 -54 -13 -108 -26
-120 -29 -20 -5 -17 7 42 185 35 104 60 190 57 190 -52 -4 -235 -29 -239 -34
-4 -3 -25 -74 -48 -158 l-42 -152 -118 -28 c-65 -16 -120 -27 -121 -25 -9 8
97 336 153 472 42 105 224 470 243 489 5 5 40 12 77 16 102 11 113 11 113 1z"/>
<path d="M880 1631 l-25 -7 22 -12 22 -12 -35 -74 c-19 -41 -34 -80 -34 -87 0
-9 18 -10 68 -5 101 10 142 24 179 61 44 44 45 83 2 119 -27 23 -39 26 -102
25 -40 -1 -83 -4 -97 -8z"/>
<path d="M764 1233 c-9 -21 -29 -69 -45 -107 l-29 -69 72 6 c129 11 200 46
211 104 12 64 -37 103 -132 103 -61 0 -61 0 -77 -37z"/>
</g>
</svg>
